<svg xmlns="http://www.w3.org/2000/svg" width="64" height="64" fill="none"><path fill="#fad859" d="M27.1 17.2c3.1 1.1 6.7 1.1 9.8 0 3.9-1.4 8.1-2 12.3-1.8l11.9.6h.2l-7.6-3.5c-2-.9-3.7-2.1-5.3-3.6-3.1-3-7.7-3.6-11.3-1.3l-3.4 2.2c-1 .6-2.2.6-3.2 0L27 7.6c-3.6-2.3-8.2-1.8-11.3 1.3-1.5 1.5-3.3 2.8-5.3 3.6L2.7 16h.2l11.9-.7c4.2-.2 8.4.4 12.3 1.9Zm22 .1c-3.9-.2-7.9.4-11.5 1.7-1.8.7-3.6 1-5.6 1-2 0-3.8-.3-5.6-1-3.7-1.3-7.5-1.9-11.5-1.7L3.1 18H3l3 .8c4.2 1.2 8.2 2.9 12 5.2v7c-.5 0-1 .5-1 1v15h-1c-.5 0-1 .5-1 1v11c0 1.6 1.3 3 3 3h10c1.7 0 3-1.4 3-3V48c0-.5-.5-1-1-1h-1V32c0-.5-.5-1-1-1v-2.5c1.3.3 2.7.4 4 .4 4.2 0 8.3-1.2 11.8-3.6a50 50 0 0 1 14.3-6.5l3-.8H61l-11.9-.7ZM20 21.1c1.5.2 2.9.9 4 2 1.1 1.2 1.9 2.7 2 4.3V31h-6v-9.9ZM27 49h-4v11h-2V49h-2v-2h8v2Z"/></svg>