<svg xmlns="http://www.w3.org/2000/svg" width="24" height="24" fill="none"><path fill="#000" d="M12 20.998a2.67 2.67 0 0 1-1.139-.253l-6.4-2.972A2.49 2.49 0 0 1 3 15.524V8.457c.005-.423.123-.838.342-1.2V7.23a.046.046 0 0 1 .009-.012l.008-.011c.038-.06.08-.118.125-.174l.024-.03.034-.04a.46.46 0 0 1 .07-.065c.232-.286.525-.518.857-.678l6.397-2.973a2.7 2.7 0 0 1 2.265 0l6.4 2.975a2.5 2.5 0 0 1 .856.678c.022.02.042.042.06.065l.03.035.038.05c.042.052.081.107.117.164l.007.009a.032.032 0 0 1 .009.012v.025c.222.36.343.774.352 1.197v7.083a2.5 2.5 0 0 1-1.47 2.238l-6.4 2.972a2.67 2.67 0 0 1-1.13.248ZM5 9.104v6.428a.48.48 0 0 0 .3.432l5.7 2.645v-6.718L5 9.104Zm14 0-6 2.787v6.716l5.69-2.644a.485.485 0 0 0 .31-.424V9.104Zm-7-4.106c-.1 0-.2.021-.292.064l-5.33 2.476L12 10.149l5.621-2.611-5.329-2.474A.69.69 0 0 0 12 4.998Z"/></svg>